<svg xmlns="http://www.w3.org/2000/svg" viewBox="0 0 256 256" role="img" aria-label="Controle de Calorias">
  <defs>
    <linearGradient id="bg" x1="32" y1="24" x2="224" y2="232" gradientUnits="userSpaceOnUse">
      <stop offset="0" stop-color="#0f2f7a"/>
      <stop offset="0.48" stop-color="#0b1f4f"/>
      <stop offset="1" stop-color="#07132f"/>
    </linearGradient>
    <linearGradient id="ring" x1="72" y1="52" x2="196" y2="204" gradientUnits="userSpaceOnUse">
      <stop offset="0" stop-color="#7dd3fc"/>
      <stop offset="0.55" stop-color="#38bdf8"/>
      <stop offset="1" stop-color="#22c55e"/>
    </linearGradient>
    <filter id="shadow" x="-20%" y="-20%" width="140%" height="140%">
      <feDropShadow dx="0" dy="12" stdDeviation="14" flood-color="#020617" flood-opacity="0.35"/>
    </filter>
  </defs>
  <rect width="256" height="256" rx="56" fill="url(#bg)"/>
  <circle cx="128" cy="128" r="79" fill="none" stroke="#dbeafe" stroke-opacity="0.18" stroke-width="18"/>
  <path d="M128 49a79 79 0 1 1-63.3 31.7" fill="none" stroke="url(#ring)" stroke-width="18" stroke-linecap="round"/>
  <g filter="url(#shadow)">
    <circle cx="128" cy="128" r="54" fill="#eff6ff"/>
    <path d="M92 132c0-25 17-44 39-44 19 0 34 14 34 33 0 27-24 47-59 47-8 0-14-6-14-14v-22Z" fill="#0b1f4f" opacity="0.1"/>
    <path d="M88 131c0-24 18-43 40-43s40 19 40 43" fill="none" stroke="#0f2f7a" stroke-width="8" stroke-linecap="round"/>
    <path d="M77 138h102" stroke="#0f2f7a" stroke-width="8" stroke-linecap="round"/>
    <path d="M119 95c14 3 25 14 28 29" stroke="#38bdf8" stroke-width="7" stroke-linecap="round"/>
    <path d="M156 75c-13 2-24 11-29 24 15 1 28-8 33-23 1-2-1-2-4-1Z" fill="#22c55e"/>
  </g>
  <path d="M190 64l6 12 13 4-12 6-4 13-6-12-13-4 12-6 4-13Z" fill="#bfdbfe" opacity="0.95"/>
</svg>
